M48
FMAT,2
METRIC
T1C0.800
T2C0.900
T3C3.200
T4C2.500
T5C3.200
%
G90
G05
T1
X7.62Y35.56
X7.62Y27.94
X10.16Y27.94
X10.16Y30.48
X10.16Y34.29
X10.16Y36.83
X12.7Y19.488
X15.24Y25.4
X16.51Y8.89
X17.78Y27.94
X17.78Y30.48
X17.78Y34.29
X17.78Y36.83
X20.32Y51.435
X20.32Y48.895
X20.32Y41.91
X20.32Y39.37
X20.32Y31.75
X22.86Y31.75
X22.86Y39.37
X25.4Y36.83
X25.4Y29.21
X25.4Y19.05
X25.54Y25.26
X29.21Y44.45
X29.21Y41.91
X29.21Y39.37
X29.21Y36.83
X29.21Y34.29
X29.21Y31.75
X29.21Y29.21
X29.21Y26.67
X29.21Y24.13
X29.21Y21.59
X29.21Y19.05
X29.21Y16.51
X29.21Y13.97
X29.21Y11.43
X31.75Y8.89
X31.75Y51.435
X34.29Y45.72
X39.37Y59.69
X39.37Y62.23
X39.37Y64.77
X39.37Y67.31
X39.37Y45.72
X40.64Y52.07
X44.44Y52.07
X44.45Y44.45
X44.45Y41.91
X44.45Y39.37
X44.45Y36.83
X44.45Y34.29
X44.45Y31.75
X44.45Y29.21
X44.45Y26.67
X44.45Y24.13
X44.45Y21.59
X44.45Y19.05
X44.45Y16.51
X44.45Y13.97
X44.45Y11.43
X44.45Y67.31
X44.45Y59.69
T2
X5.08Y5.08
X7.62Y5.08
X7.62Y22.86
X10.16Y22.86
X10.16Y5.08
X12.7Y54.61
X12.7Y22.86
X15.24Y22.86
X15.24Y54.61
X16.51Y5.08
X17.78Y22.86
X17.78Y54.61
X19.05Y5.08
X20.32Y22.86
X20.32Y54.61
X21.59Y5.08
X24.13Y5.08
X31.75Y81.28
X31.75Y72.39
X34.29Y62.23
X34.29Y64.77
X46.99Y81.28
X46.99Y72.39
T3
X6.36Y55.61
X6.36Y86.01
X26.66Y86.01
X26.66Y55.61
T4
X2.54Y11.43
T5
X46.99Y3.81
X46.99Y86.36
G05
T0
M30
